<?xml version="1.0" encoding="UTF-8"?>
<!DOCTYPE svg PUBLIC "-//W3C//DTD SVG 1.1//EN" "http://www.w3.org/Graphics/SVG/1.1/DTD/svg11.dtd">
<svg xmlns="http://www.w3.org/2000/svg" version="1.1" width="3963px" height="1179px" style="shape-rendering:geometricPrecision; text-rendering:geometricPrecision; image-rendering:optimizeQuality; fill-rule:evenodd; clip-rule:evenodd" xmlns:xlink="http://www.w3.org/1999/xlink">
<g><path style="opacity:0.99" fill="#1d56fb" d="M 1180.5,337.5 C 1192.43,336.385 1202.27,340.385 1210,349.5C 1213.66,355.397 1213.99,361.397 1211,367.5C 1211.02,382.625 1209.69,397.625 1207,412.5C 1198.05,450.531 1190.72,488.864 1185,527.5C 1179.04,548.054 1172.7,568.387 1166,588.5C 1179.2,575.632 1192.7,563.132 1206.5,551C 1219.99,539.922 1235.32,532.589 1252.5,529C 1263.73,527.724 1274.73,528.724 1285.5,532C 1294.8,537.102 1304.46,541.435 1314.5,545C 1317.71,553.6 1320.21,562.434 1322,571.5C 1322.12,598.069 1321.62,624.569 1320.5,651C 1321.02,668.809 1322.02,686.642 1323.5,704.5C 1323.61,720.558 1315.78,727.558 1300,725.5C 1284.61,726.768 1273.61,720.435 1267,706.5C 1262.63,694.572 1260.3,682.239 1260,669.5C 1259.67,647.833 1259.33,626.167 1259,604.5C 1258.45,598.649 1257.12,592.982 1255,587.5C 1252.08,581.975 1247.58,580.142 1241.5,582C 1232.06,586.809 1223.56,592.976 1216,600.5C 1202.97,613.866 1190.3,627.533 1178,641.5C 1171.58,650.586 1164.42,659.086 1156.5,667C 1148.85,670.133 1143.51,675.466 1140.5,683C 1141.02,683.561 1141.36,684.228 1141.5,685C 1138.97,688.404 1137.31,692.238 1136.5,696.5C 1133.55,698.655 1130.21,699.822 1126.5,700C 1118.26,708.315 1109.6,708.649 1100.5,701C 1094.69,696.859 1090.86,691.359 1089,684.5C 1083.37,664.146 1082.04,643.48 1085,622.5C 1089.33,582.189 1097,542.523 1108,503.5C 1121.19,457.924 1135.19,412.591 1150,367.5C 1151.9,361.012 1152.4,354.512 1151.5,348C 1153.71,346.956 1156.05,346.29 1158.5,346C 1159.7,345.097 1160.53,343.931 1161,342.5C 1162.33,343.167 1163.67,343.833 1165,344.5C 1170.17,342.058 1175.34,339.725 1180.5,337.5 Z"/></g>
<g><path style="opacity:0.991" fill="#1d56fb" d="M 2606.5,337.5 C 2615.59,336.738 2624.26,338.238 2632.5,342C 2637.33,347.5 2642.17,353 2647,358.5C 2647.97,360.392 2648.64,362.392 2649,364.5C 2648.35,371.786 2647.69,379.119 2647,386.5C 2645.2,389.746 2643.03,392.746 2640.5,395.5C 2642.12,396.869 2642.62,398.536 2642,400.5C 2638.33,402.833 2634.67,405.167 2631,407.5C 2629.22,412.059 2627.22,416.392 2625,420.5C 2623.99,421.337 2622.82,421.67 2621.5,421.5C 2622.75,423.968 2622.58,426.301 2621,428.5C 2618.47,429.726 2616.31,431.392 2614.5,433.5C 2615.17,434.167 2615.83,434.833 2616.5,435.5C 2615.52,436.981 2614.35,438.315 2613,439.5C 2612.41,440.899 2612.57,442.232 2613.5,443.5C 2609.79,446.432 2608.46,450.099 2609.5,454.5C 2603.97,462.227 2599.47,470.56 2596,479.5C 2575.4,531.641 2557.57,584.141 2542.5,637C 2543.61,639.047 2544.28,641.213 2544.5,643.5C 2543.17,643.5 2541.83,643.5 2540.5,643.5C 2540.35,650.922 2539.01,658.089 2536.5,665C 2538.59,665.792 2540.42,666.959 2542,668.5C 2570.33,661.169 2599.17,656.002 2628.5,653C 2644.17,652.333 2659.83,652.333 2675.5,653C 2702.86,657.366 2722.53,672.032 2734.5,697C 2732.57,700.767 2729.57,703.267 2725.5,704.5C 2723.69,708.622 2722.02,712.789 2720.5,717C 2721.17,719.667 2721.83,722.333 2722.5,725C 2720.99,728.523 2722.33,730.189 2726.5,730C 2727.34,731.011 2727.67,732.178 2727.5,733.5C 2725,733.251 2722.5,732.917 2720,732.5C 2711.05,737.036 2701.55,739.536 2691.5,740C 2675.8,740.137 2660.14,740.804 2644.5,742C 2627.65,745.335 2610.82,748.501 2594,751.5C 2592.86,751.089 2591.69,750.756 2590.5,750.5C 2586.87,752.315 2583.2,754.149 2579.5,756C 2576.9,756.769 2574.4,756.602 2572,755.5C 2568.98,757.818 2565.82,757.818 2562.5,755.5C 2561.71,755.931 2560.87,756.265 2560,756.5C 2558.16,755.244 2556.16,754.244 2554,753.5C 2550.13,754.27 2546.46,755.603 2543,757.5C 2541.29,756.924 2540.12,755.757 2539.5,754C 2523.66,752.498 2508.16,749.331 2493,744.5C 2490.31,745.099 2487.81,746.099 2485.5,747.5C 2481.98,746.15 2479.65,743.65 2478.5,740C 2478.91,739.055 2479.57,738.388 2480.5,738C 2478.28,735.724 2475.62,734.224 2472.5,733.5C 2469.53,729.345 2465.53,726.678 2460.5,725.5C 2460.71,724.914 2461.04,724.414 2461.5,724C 2455.2,719.563 2450.7,713.729 2448,706.5C 2445.69,696.444 2443.19,686.444 2440.5,676.5C 2441.36,674.803 2442.7,673.637 2444.5,673C 2449.86,672.391 2455.19,672.558 2460.5,673.5C 2460.34,672.127 2460.51,670.793 2461,669.5C 2463,668.833 2464.33,667.5 2465,665.5C 2470.31,641.113 2475.81,616.78 2481.5,592.5C 2480.5,590.833 2479.17,589.5 2477.5,588.5C 2479.18,586.324 2481.01,584.324 2483,582.5C 2484.53,575.232 2486.87,568.232 2490,561.5C 2490.9,556.849 2491.73,552.182 2492.5,547.5C 2494.93,545.515 2494.93,543.348 2492.5,541C 2494.97,538.772 2496.13,535.938 2496,532.5C 2497.63,530.083 2499.13,527.583 2500.5,525C 2499.13,522.699 2498.47,520.199 2498.5,517.5C 2499.5,517.5 2500.5,517.5 2501.5,517.5C 2501.56,513.495 2502.89,509.995 2505.5,507C 2504.42,505.274 2504.26,503.441 2505,501.5C 2506.73,499.277 2508.23,496.944 2509.5,494.5C 2508.57,492.895 2508.57,491.395 2509.5,490C 2507.06,487.442 2507.56,486.608 2511,487.5C 2513.39,481.051 2516.06,474.718 2519,468.5C 2519.21,465.144 2519.21,461.811 2519,458.5C 2521.67,457.167 2523.67,455.167 2525,452.5C 2527.04,442.078 2531.04,432.411 2537,423.5C 2541.42,410.663 2547.42,398.663 2555,387.5C 2556.44,381.957 2558.44,376.624 2561,371.5C 2567.9,363.031 2572.07,353.365 2573.5,342.5C 2584.54,340.163 2595.54,338.496 2606.5,337.5 Z"/></g>
<g><path style="opacity:0.976" fill="#1d56fb" d="M 2867.5,373.5 C 2869.86,373.337 2872.19,373.503 2874.5,374C 2882.84,378.499 2890.84,383.499 2898.5,389C 2906.48,398.725 2906.48,408.391 2898.5,418C 2891.11,422.518 2883.11,425.351 2874.5,426.5C 2874.5,427.833 2874.5,429.167 2874.5,430.5C 2872.47,430.338 2870.47,430.505 2868.5,431C 2864.36,433.639 2860.36,436.472 2856.5,439.5C 2855.52,438.019 2854.35,436.685 2853,435.5C 2851.2,424.966 2847.87,414.966 2843,405.5C 2842.9,398.887 2842.06,392.387 2840.5,386C 2840.97,382.196 2842.97,379.529 2846.5,378C 2853.54,376.055 2860.54,374.555 2867.5,373.5 Z"/></g>
<g><path style="opacity:0.989" fill="#1d56fb" d="M 964.5,379.5 C 972.12,380.472 979.62,382.139 987,384.5C 992.998,380.105 996.331,381.772 997,389.5C 1006.47,394.89 1014.47,401.89 1021,410.5C 1022.3,413.755 1023.97,416.755 1026,419.5C 1026.33,419.167 1026.67,418.833 1027,418.5C 1027.29,420.326 1027.12,422.159 1026.5,424C 1027.27,427.634 1028.43,431.134 1030,434.5C 1030.72,437.377 1030.22,440.043 1028.5,442.5C 1025.47,443.567 1022.47,444.734 1019.5,446C 1013.46,452.677 1006.12,455.344 997.5,454C 994.006,457.724 989.673,459.724 984.5,460C 982.787,461.925 981.453,464.092 980.5,466.5C 978.802,465.319 977.135,465.319 975.5,466.5C 972.313,470.188 968.313,472.688 963.5,474C 962.128,475.242 961.128,476.742 960.5,478.5C 958.138,479.271 955.804,480.105 953.5,481C 950.007,484.985 947.007,489.318 944.5,494C 942.422,496.134 940.588,495.968 939,493.5C 938.163,495.351 937.329,497.184 936.5,499C 933.429,499.147 930.596,499.98 928,501.5C 926.377,505.71 924.377,509.71 922,513.5C 921,514.833 920,514.833 919,513.5C 914.605,517.624 911.772,522.624 910.5,528.5C 909.178,528.33 908.011,528.663 907,529.5C 904.393,534.374 901.06,538.708 897,542.5C 878.946,573.298 864.613,605.965 854,640.5C 852.043,648.509 852.043,656.509 854,664.5C 856.962,670.792 861.795,674.959 868.5,677C 883.066,681.32 897.733,681.653 912.5,678C 927.284,675.98 941.951,673.314 956.5,670C 977.224,664.536 997.891,658.87 1018.5,653C 1022.17,652.667 1025.83,652.333 1029.5,652C 1037.04,647.875 1045.04,645.042 1053.5,643.5C 1057.79,644.375 1062.12,644.708 1066.5,644.5C 1063.21,649.584 1060.54,655.084 1058.5,661C 1060.04,661.29 1061.38,661.956 1062.5,663C 1058.81,666.21 1055.98,670.044 1054,674.5C 1052.06,677.106 1049.56,678.939 1046.5,680C 1048.06,680.98 1049.73,681.813 1051.5,682.5C 1051.33,682.833 1051.17,683.167 1051,683.5C 1046.71,687.909 1041.88,691.743 1036.5,695C 1026.25,699.196 1015.91,703.196 1005.5,707C 1004.3,707.654 1004.3,708.154 1005.5,708.5C 1007.71,706.69 1010.04,706.357 1012.5,707.5C 1012.29,708.086 1011.96,708.586 1011.5,709C 1015.32,710.768 1015.32,712.768 1011.5,715C 1008.83,715.667 1006.17,716.333 1003.5,717C 997.764,721.064 991.764,724.73 985.5,728C 980.036,728.23 975.036,729.896 970.5,733C 966.891,734.072 963.891,733.239 961.5,730.5C 949.57,733.649 937.57,736.483 925.5,739C 916.369,739.993 907.369,739.326 898.5,737C 897.167,736 895.833,735 894.5,734C 888.167,733.667 881.833,733.333 875.5,733C 862.334,726.612 849.001,720.612 835.5,715C 825.611,706.143 815.444,697.643 805,689.5C 782.101,659.769 775.434,626.769 785,590.5C 786.139,578.807 788.805,567.473 793,556.5C 804.609,529.268 819.275,503.934 837,480.5C 852.21,462.959 867.044,445.125 881.5,427C 898.218,413.948 915.218,401.281 932.5,389C 939.118,386.667 945.785,384.333 952.5,382C 956.767,381.811 960.767,380.977 964.5,379.5 Z"/></g>
<g><path style="opacity:0.991" fill="#1d56fb" d="M 502.5,382.5 C 559.857,380.692 583.357,408.025 573,464.5C 571.321,472.882 569.487,481.216 567.5,489.5C 581.18,488.784 594.846,487.784 608.5,486.5C 618.118,468.48 623.785,449.314 625.5,429C 625.722,422.946 624.722,417.112 622.5,411.5C 626.38,406.224 631.38,402.391 637.5,400C 638.833,398.667 640.167,397.333 641.5,396C 651.171,396.761 660.838,398.094 670.5,400C 674.184,403.457 678.517,405.79 683.5,407C 690.56,414.757 693.56,423.924 692.5,434.5C 692.398,440.534 691.898,446.534 691,452.5C 688.112,464.548 685.946,476.715 684.5,489C 690.297,492.491 696.63,494.825 703.5,496C 716.5,498.333 729.5,500.667 742.5,503C 744.5,503.667 745.833,505 746.5,507C 734.885,509.49 723.218,511.656 711.5,513.5C 710.068,515.816 709.068,518.316 708.5,521C 698.23,521.241 688.063,522.074 678,523.5C 676.138,533.282 673.805,542.948 671,552.5C 665.799,567.103 660.799,581.77 656,596.5C 653.531,605.009 652.031,613.676 651.5,622.5C 674.101,623.283 696.435,626.117 718.5,631C 726.355,633.983 726.355,636.65 718.5,639C 711.833,639.667 705.167,640.333 698.5,641C 691.631,642.347 691.298,643.18 697.5,643.5C 697.5,644.833 697.5,646.167 697.5,647.5C 695.473,647.338 693.473,647.505 691.5,648C 695.167,648.333 698.833,648.667 702.5,649C 702.833,649.333 703.167,649.667 703.5,650C 697.686,652.096 691.686,653.43 685.5,654C 672.479,654.297 659.479,654.964 646.5,656C 641.471,662.28 638.971,669.446 639,677.5C 639.36,675.579 640.194,673.912 641.5,672.5C 642.66,676.459 642.827,680.459 642,684.5C 638.209,691.707 635.709,699.374 634.5,707.5C 633.702,705.922 633.202,704.256 633,702.5C 627.952,717.452 624.619,732.785 623,748.5C 620.187,750.588 617.52,752.921 615,755.5C 612.505,761.328 608.171,764.995 602,766.5C 600.109,770.13 597.442,773.13 594,775.5C 592.418,777.624 592.251,779.79 593.5,782C 572.777,770.873 560.944,753.373 558,729.5C 557.327,706.738 558.494,684.071 561.5,661.5C 546.906,663.102 532.406,665.102 518,667.5C 515.757,678.43 513.757,689.43 512,700.5C 510.416,704.675 508.082,708.341 505,711.5C 504.012,714.424 503.346,717.424 503,720.5C 502.692,721.308 502.192,721.975 501.5,722.5C 498.865,721.527 496.865,719.86 495.5,717.5C 494.692,717.808 494.025,718.308 493.5,719C 494.19,721.696 495.69,723.863 498,725.5C 499.418,732.741 496.584,735.074 489.5,732.5C 488.522,732.977 487.689,733.643 487,734.5C 484.791,741.219 482.457,747.886 480,754.5C 475.301,759.168 470.135,759.668 464.5,756C 457.707,750.875 451.207,745.375 445,739.5C 433.446,722.29 428.28,703.29 429.5,682.5C 427.599,682.433 425.766,682.767 424,683.5C 414.505,681.168 405.671,677.335 397.5,672C 389.038,665.481 388.371,658.314 395.5,650.5C 398.446,652.204 401.613,653.204 405,653.5C 413.248,651.806 421.415,649.806 429.5,647.5C 433.511,615.279 439.511,583.446 447.5,552C 438.869,552.277 430.536,550.943 422.5,548C 416.658,544.579 410.658,541.412 404.5,538.5C 400.621,532.349 400.621,526.182 404.5,520C 410.167,519.667 415.833,519.333 421.5,519C 428.5,516.667 435.5,514.333 442.5,512C 447.464,511.088 452.464,510.588 457.5,510.5C 466.855,474.413 476.522,438.413 486.5,402.5C 485.5,402.5 484.5,402.5 483.5,402.5C 482.959,399.348 483.959,396.848 486.5,395C 486.167,394.667 485.833,394.333 485.5,394C 488.979,391.688 491.979,388.854 494.5,385.5C 497.184,384.247 499.85,383.247 502.5,382.5 Z M 592.5,528.5 C 593.147,529.274 593.48,530.274 593.5,531.5C 589.645,548.232 584.479,564.565 578,580.5C 574.435,594.824 570.935,609.157 567.5,623.5C 553.211,625.132 538.878,626.465 524.5,627.5C 533.805,598.284 542.805,568.951 551.5,539.5C 554.28,537.883 557.28,536.716 560.5,536C 571.398,533.925 582.064,531.425 592.5,528.5 Z"/></g>
<g><path style="opacity:0.99" fill="#1d56fb" d="M 1731.5,421.5 C 1736.9,420.966 1741.9,422.133 1746.5,425C 1751.58,431.691 1756.24,438.524 1760.5,445.5C 1759.85,451.195 1759.02,456.862 1758,462.5C 1753.61,474.943 1748.94,487.277 1744,499.5C 1742.69,502.503 1742.52,505.503 1743.5,508.5C 1759.78,494.404 1777.78,482.904 1797.5,474C 1819.89,466.156 1842.56,464.823 1865.5,470C 1868.45,474.297 1872.45,476.964 1877.5,478C 1881,482.833 1885.17,487 1890,490.5C 1896.19,500.872 1901.85,511.539 1907,522.5C 1908.63,527.03 1909.63,531.696 1910,536.5C 1912.03,539.812 1912.87,543.479 1912.5,547.5C 1910.08,561.752 1908.25,576.085 1907,590.5C 1906.42,592.002 1905.58,593.335 1904.5,594.5C 1903.91,594.291 1903.41,593.957 1903,593.5C 1902.47,596.272 1901.64,598.938 1900.5,601.5C 1899.91,601.291 1899.41,600.957 1899,600.5C 1896.03,617.355 1894.53,634.355 1894.5,651.5C 1896.35,651.222 1897.68,651.889 1898.5,653.5C 1896.52,655.984 1894.35,658.317 1892,660.5C 1891.28,662.112 1891.45,663.612 1892.5,665C 1890.94,665.318 1889.77,666.151 1889,667.5C 1888.38,673.995 1887.72,680.328 1887,686.5C 1885.2,688.317 1883.03,689.484 1880.5,690C 1865.06,692.197 1851.89,687.697 1841,676.5C 1834.42,668.015 1829.42,658.682 1826,648.5C 1825.26,641.42 1825.76,634.42 1827.5,627.5C 1827.21,625.048 1826.54,622.715 1825.5,620.5C 1832.79,592.02 1839.12,563.353 1844.5,534.5C 1845.7,524.346 1841.37,520.179 1831.5,522C 1817.74,528.379 1804.08,535.045 1790.5,542C 1786.33,545.5 1782.17,549 1778,552.5C 1776.69,559.113 1773.36,564.447 1768,568.5C 1765.75,572.007 1763.75,575.673 1762,579.5C 1757.66,592.856 1753.33,606.19 1749,619.5C 1741.99,628.837 1735.99,638.837 1731,649.5C 1723.79,662.092 1715.96,674.258 1707.5,686C 1693.79,694.876 1678.79,697.876 1662.5,695C 1659.29,694.394 1656.29,693.227 1653.5,691.5C 1652.71,691.931 1651.87,692.265 1651,692.5C 1649.64,690.811 1647.98,689.478 1646,688.5C 1644.06,681.311 1643.06,673.978 1643,666.5C 1642.31,665.975 1641.81,665.308 1641.5,664.5C 1643.58,660.77 1644.74,656.77 1645,652.5C 1645.15,633.915 1648.48,615.915 1655,598.5C 1671.14,554.406 1685.48,509.739 1698,464.5C 1698.89,461.048 1700.56,458.048 1703,455.5C 1702.12,449.191 1701.45,442.858 1701,436.5C 1702.47,432.688 1704.97,429.854 1708.5,428C 1711.18,427.751 1713.51,426.751 1715.5,425C 1718.05,424.34 1720.55,424.507 1723,425.5C 1725.72,423.719 1728.56,422.386 1731.5,421.5 Z M 1837.5,638.5 C 1839.1,639.799 1839.6,641.465 1839,643.5C 1837.99,641.975 1837.49,640.308 1837.5,638.5 Z"/></g>
<g><path style="opacity:0.986" fill="#1d56fb" d="M 3520.5,436.5 C 3524.85,436.334 3529.18,436.501 3533.5,437C 3535.5,438.333 3537.17,440 3538.5,442C 3545.28,445.138 3551.78,448.638 3558,452.5C 3562,457.833 3566,463.167 3570,468.5C 3576.25,484.992 3570.59,493.992 3553,495.5C 3549.27,495.115 3546.11,493.615 3543.5,491C 3538.38,490.046 3533.21,489.546 3528,489.5C 3512.73,490.961 3497.57,493.128 3482.5,496C 3470.87,500.727 3460.7,507.561 3452,516.5C 3443.08,527.041 3441.75,538.375 3448,550.5C 3451.67,555.833 3455.33,561.167 3459,566.5C 3476.3,584.805 3493.97,602.805 3512,620.5C 3522.09,631.674 3528.75,644.674 3532,659.5C 3534.14,671.343 3532.14,682.343 3526,692.5C 3509.47,709.847 3489.64,721.681 3466.5,728C 3454.21,729.536 3441.88,729.87 3429.5,729C 3421.35,728.509 3414.19,725.676 3408,720.5C 3403.49,721.835 3398.99,721.669 3394.5,720C 3392.11,718.691 3392.11,717.691 3394.5,717C 3397.06,717.438 3399.56,717.271 3402,716.5C 3402.16,714.613 3401.33,713.113 3399.5,712C 3389.5,707.333 3379.5,702.667 3369.5,698C 3366.64,696.636 3364.64,694.47 3363.5,691.5C 3364.09,690.201 3365.09,689.368 3366.5,689C 3357.36,681.998 3355.86,673.831 3362,664.5C 3365.68,664.024 3369.18,663.024 3372.5,661.5C 3373.5,661.833 3374.17,662.5 3374.5,663.5C 3373.39,664.892 3372.06,666.059 3370.5,667C 3377.69,668.977 3385.02,670.31 3392.5,671C 3415.69,673.973 3438.02,670.973 3459.5,662C 3460.33,661.167 3461.17,660.333 3462,659.5C 3462.24,656.711 3462.91,654.044 3464,651.5C 3466.22,649.615 3468.06,647.449 3469.5,645C 3468.8,643.107 3467.97,641.274 3467,639.5C 3460.14,632.302 3452.97,625.468 3445.5,619C 3432.83,610.333 3420.17,601.667 3407.5,593C 3384.43,570.323 3379.6,544.157 3393,514.5C 3410.24,485.268 3434.4,463.768 3465.5,450C 3483.54,443.764 3501.87,439.264 3520.5,436.5 Z"/></g>
<g><path style="opacity:0.99" fill="#1d56fb" d="M 2165.5,450.5 C 2175.52,449.92 2182.35,454.254 2186,463.5C 2187.17,461.158 2188.34,458.824 2189.5,456.5C 2192.75,458.071 2195.25,460.405 2197,463.5C 2197.41,463.043 2197.91,462.709 2198.5,462.5C 2198.83,466.667 2199.17,470.833 2199.5,475C 2195.99,516.226 2191.83,557.392 2187,598.5C 2186.33,605.5 2186.33,612.5 2187,619.5C 2188.16,619.998 2188.99,620.831 2189.5,622C 2188.53,625.244 2187.36,628.41 2186,631.5C 2182.64,632.742 2182.81,633.576 2186.5,634C 2184.57,636.258 2183.07,638.758 2182,641.5C 2173.68,677.126 2163.35,712.126 2151,746.5C 2149.33,748.167 2147.67,749.833 2146,751.5C 2144.44,756.28 2142.11,760.613 2139,764.5C 2138.11,768.21 2137.11,771.877 2136,775.5C 2127.28,785.88 2118.95,796.547 2111,807.5C 2105.79,812.378 2100.29,816.878 2094.5,821C 2092.79,822.378 2091.45,824.045 2090.5,826C 2083.35,828.969 2076.35,832.302 2069.5,836C 2061.39,836.685 2053.39,838.018 2045.5,840C 2040.55,840.746 2035.71,840.246 2031,838.5C 2029.7,838.96 2028.37,839.294 2027,839.5C 2023.24,838.234 2019.41,837.234 2015.5,836.5C 2013.94,839.136 2012.6,838.969 2011.5,836C 2006.67,834.952 2002.34,832.952 1998.5,830C 1995.45,829.321 1992.45,828.488 1989.5,827.5C 1985.84,823.009 1981.67,819.009 1977,815.5C 1976.67,814.167 1976.33,812.833 1976,811.5C 1973.96,810.421 1972.62,808.754 1972,806.5C 1968.25,796.006 1964.25,785.672 1960,775.5C 1960.58,762.897 1966.75,754.064 1978.5,749C 1985.21,747.752 1991.55,748.752 1997.5,752C 1999.54,754.374 2001.87,756.374 2004.5,758C 2009.59,764.849 2014.93,771.516 2020.5,778C 2024.34,781.041 2028.67,782.374 2033.5,782C 2050.84,773.753 2066.34,762.919 2080,749.5C 2087.67,739.833 2095.33,730.167 2103,720.5C 2107.55,713.242 2111.71,705.742 2115.5,698C 2106.55,700.156 2097.55,702.489 2088.5,705C 2055.97,712.855 2023.63,712.188 1991.5,703C 1987.59,701.093 1984.26,698.427 1981.5,695C 1949.96,685.449 1936.12,664.283 1940,631.5C 1940.41,621.51 1943.41,612.51 1949,604.5C 1949.19,599.654 1950.19,594.988 1952,590.5C 1960.67,575.495 1971.84,562.662 1985.5,552C 1994.62,540.542 2005.29,530.876 2017.5,523C 2032.67,513.917 2047.67,504.584 2062.5,495C 2077.1,486.866 2092.1,479.533 2107.5,473C 2121.26,469.532 2133.26,472.698 2143.5,482.5C 2141.96,465.534 2149.3,454.867 2165.5,450.5 Z M 2114.5,529.5 C 2119.8,530.439 2125.14,531.273 2130.5,532C 2131.7,533.353 2132.37,535.019 2132.5,537C 2130.44,558.795 2128.94,580.628 2128,602.5C 2127.25,610.578 2126.08,618.578 2124.5,626.5C 2098.5,634.084 2072.17,640.25 2045.5,645C 2039.17,645.667 2032.83,645.667 2026.5,645C 2013.88,641.609 2009.05,633.442 2012,620.5C 2014.02,612.776 2017.02,605.442 2021,598.5C 2037.57,572.59 2059.74,553.09 2087.5,540C 2096.59,536.445 2105.59,532.945 2114.5,529.5 Z"/></g>
<g><path style="opacity:0.99" fill="#1d56fb" d="M 1565.5,451.5 C 1593.98,451.482 1608.31,465.649 1608.5,494C 1606.85,512.096 1603.68,529.93 1599,547.5C 1597.62,565.628 1595.28,583.628 1592,601.5C 1589.02,613.95 1584.52,625.783 1578.5,637C 1579.06,639.124 1579.4,641.291 1579.5,643.5C 1578.99,662.526 1578.15,681.526 1577,700.5C 1568.73,710.876 1558.56,718.709 1546.5,724C 1533.59,726.461 1524.42,721.627 1519,709.5C 1513.95,697.648 1510.62,685.315 1509,672.5C 1503.56,675.939 1499.56,680.605 1497,686.5C 1473.04,696.094 1448.2,700.261 1422.5,699C 1408.31,696.16 1396.48,689.326 1387,678.5C 1383.33,674.167 1379.67,669.833 1376,665.5C 1372.06,656.614 1368.39,647.614 1365,638.5C 1362.02,622.088 1364.35,606.421 1372,591.5C 1390.35,556.472 1415.85,527.639 1448.5,505C 1464.62,494.609 1481.95,486.942 1500.5,482C 1506.86,480.325 1513.19,480.325 1519.5,482C 1524.01,484.516 1528.51,487.016 1533,489.5C 1533.95,489.095 1534.61,488.428 1535,487.5C 1537.91,477.134 1540.91,467.134 1544,457.5C 1551.35,455.804 1558.51,453.804 1565.5,451.5 Z M 1506.5,541.5 C 1510.5,542.035 1514.5,542.701 1518.5,543.5C 1516.05,557.278 1513.89,571.278 1512,585.5C 1511.28,597.871 1510.44,610.204 1509.5,622.5C 1485.77,630.119 1461.43,632.952 1436.5,631C 1426.95,629.73 1424.11,624.563 1428,615.5C 1432.01,607.43 1436.01,599.43 1440,591.5C 1440.91,592.654 1441.75,592.487 1442.5,591C 1442.68,584.521 1445.85,579.687 1452,576.5C 1452.33,575.5 1452.67,574.5 1453,573.5C 1455.57,572.73 1458.07,571.73 1460.5,570.5C 1461,568.784 1461.33,567.117 1461.5,565.5C 1475.55,555.645 1490.55,547.645 1506.5,541.5 Z"/></g>
<g><path style="opacity:0.987" fill="#1d56fb" d="M 3091.5,454.5 C 3096.19,454.54 3100.86,454.873 3105.5,455.5C 3105.87,459.871 3106.54,464.204 3107.5,468.5C 3109.06,467.055 3110.4,465.389 3111.5,463.5C 3113.45,465.044 3113.95,467.044 3113,469.5C 3110.65,471.683 3108.48,474.016 3106.5,476.5C 3108.02,480.242 3107.35,483.575 3104.5,486.5C 3105.56,486.906 3106.89,486.906 3108.5,486.5C 3109.37,493.877 3108.87,501.211 3107,508.5C 3102.68,519.972 3097.18,530.806 3090.5,541C 3091.17,541.333 3091.83,541.667 3092.5,542C 3087.92,548.995 3082.76,555.495 3077,561.5C 3070.74,577.351 3063.41,592.684 3055,607.5C 3043.54,623.63 3032.88,640.297 3023,657.5C 3015.46,666.033 3009.13,675.367 3004,685.5C 2998.17,690 2993,695.167 2988.5,701C 2985.27,702.23 2982.6,704.23 2980.5,707C 2976.34,708.269 2972.51,710.103 2969,712.5C 2967.37,711.982 2965.71,711.648 2964,711.5C 2954.96,714.546 2946.13,714.046 2937.5,710C 2933.94,707.111 2929.94,705.111 2925.5,704C 2921.62,699.817 2917.45,695.984 2913,692.5C 2908.64,682.654 2906.31,672.32 2906,661.5C 2905.33,624.167 2905.33,586.833 2906,549.5C 2906.05,532.42 2907.22,515.42 2909.5,498.5C 2909.35,495.547 2908.68,492.714 2907.5,490C 2914.01,475.607 2924.35,471.94 2938.5,479C 2939.7,479.903 2940.53,481.069 2941,482.5C 2941.62,494.042 2941.12,505.542 2939.5,517C 2940.38,521.298 2941.04,525.632 2941.5,530C 2939.88,537.453 2940.21,544.786 2942.5,552C 2941.9,554.524 2941.23,557.024 2940.5,559.5C 2940.81,560.308 2941.31,560.975 2942,561.5C 2941.24,573.172 2941.57,584.839 2943,596.5C 2945.12,612.488 2947.12,628.488 2949,644.5C 2978.96,591.237 3011.29,539.57 3046,489.5C 3051.57,481.54 3057.74,474.04 3064.5,467C 3072.58,460.622 3081.58,456.456 3091.5,454.5 Z"/></g>
<g><path style="opacity:0.987" fill="#1d56fb" d="M 2344.5,464.5 C 2347.19,464.336 2349.85,464.503 2352.5,465C 2363.32,468.607 2373.99,472.607 2384.5,477C 2389.56,477.954 2394.56,479.12 2399.5,480.5C 2402.52,484.353 2406.02,487.687 2410,490.5C 2413.14,498.547 2415.14,506.881 2416,515.5C 2416.47,516.931 2417.3,518.097 2418.5,519C 2416.32,530.212 2411.82,540.379 2405,549.5C 2397.39,556.774 2390.22,564.274 2383.5,572C 2382.21,572.49 2380.87,572.657 2379.5,572.5C 2379.76,573.978 2379.43,575.311 2378.5,576.5C 2373.6,579.98 2368.27,582.813 2362.5,585C 2359.65,587.682 2356.98,590.516 2354.5,593.5C 2353.83,592.833 2353.17,592.167 2352.5,591.5C 2351.02,592.48 2349.69,593.647 2348.5,595C 2341.85,594.992 2335.85,596.825 2330.5,600.5C 2327.17,599.833 2323.83,599.167 2320.5,598.5C 2317.28,599.795 2313.95,600.462 2310.5,600.5C 2310.5,599.5 2310.5,598.5 2310.5,597.5C 2309.18,597.67 2308.01,597.337 2307,596.5C 2302.12,600.363 2299.46,605.363 2299,611.5C 2296.68,614.093 2295.85,616.926 2296.5,620C 2296.05,621.285 2295.38,622.452 2294.5,623.5C 2295.76,625.648 2295.76,627.815 2294.5,630C 2297.34,633.267 2297.67,636.6 2295.5,640C 2297.82,643.656 2300.15,647.323 2302.5,651C 2305.62,652.059 2308.62,653.392 2311.5,655C 2331.84,657.955 2351.84,656.288 2371.5,650C 2380.09,646.803 2388.76,643.803 2397.5,641C 2404.58,637.087 2411.24,632.587 2417.5,627.5C 2420.17,629.673 2422.51,632.173 2424.5,635C 2428.95,635.111 2430.79,637.277 2430,641.5C 2426.25,644.29 2422.42,646.957 2418.5,649.5C 2423.18,651.286 2424.68,654.619 2423,659.5C 2421.67,662.167 2419.67,664.167 2417,665.5C 2415.36,669.437 2413.52,673.27 2411.5,677C 2406.56,678.485 2401.56,679.819 2396.5,681C 2377.74,694.476 2356.74,701.809 2333.5,703C 2317.98,704.339 2302.65,703.339 2287.5,700C 2281.19,696.56 2274.52,693.893 2267.5,692C 2258.7,684.872 2250.2,677.372 2242,669.5C 2231.2,655.782 2225.54,640.115 2225,622.5C 2223.04,604.243 2225.37,586.577 2232,569.5C 2244.22,539.887 2263.05,515.387 2288.5,496C 2297.17,490 2305.83,484 2314.5,478C 2324.64,473.574 2334.64,469.074 2344.5,464.5 Z M 2370.5,504.5 C 2374.25,504.392 2377.91,504.892 2381.5,506C 2366.02,528.66 2345.19,544.16 2319,552.5C 2320.78,545.713 2325.11,541.047 2332,538.5C 2332.11,535.869 2332.27,533.369 2332.5,531C 2334.24,530.349 2335.9,530.515 2337.5,531.5C 2340.22,526.275 2343.89,521.775 2348.5,518C 2356.4,514.227 2363.73,509.727 2370.5,504.5 Z"/></g>
<g><path style="opacity:0.987" fill="#1d56fb" d="M 3260.5,464.5 C 3263.19,464.336 3265.85,464.503 3268.5,465C 3278.32,468.274 3287.99,471.941 3297.5,476C 3303.48,477.607 3309.48,479.107 3315.5,480.5C 3318.52,484.353 3322.02,487.687 3326,490.5C 3329.08,497.147 3330.74,504.147 3331,511.5C 3331.89,514.284 3333.06,516.95 3334.5,519.5C 3332.66,528.858 3329.16,537.525 3324,545.5C 3317.7,552.803 3311.03,559.803 3304,566.5C 3303.51,567.793 3303.34,569.127 3303.5,570.5C 3301,571.639 3298.33,572.306 3295.5,572.5C 3295.76,573.978 3295.43,575.311 3294.5,576.5C 3289.06,579.938 3283.39,583.104 3277.5,586C 3274.98,588.349 3272.65,590.849 3270.5,593.5C 3268.23,590.942 3266.56,591.442 3265.5,595C 3258.5,594.831 3252.16,596.665 3246.5,600.5C 3243.35,599.769 3240.18,599.103 3237,598.5C 3233.59,599.692 3230.09,600.359 3226.5,600.5C 3226.5,599.5 3226.5,598.5 3226.5,597.5C 3224.67,596.948 3223,596.948 3221.5,597.5C 3219.5,600.167 3217.5,602.833 3215.5,605.5C 3215.83,606.167 3216.17,606.833 3216.5,607.5C 3213.69,612.52 3211.69,617.853 3210.5,623.5C 3211.76,625.648 3211.76,627.815 3210.5,630C 3212.05,632.098 3213.05,634.431 3213.5,637C 3211.31,638.887 3211.14,641.053 3213,643.5C 3215.32,645.47 3217.15,647.804 3218.5,650.5C 3221.5,652 3224.5,653.5 3227.5,655C 3247.85,657.952 3267.85,656.285 3287.5,650C 3296.09,646.803 3304.76,643.803 3313.5,641C 3320.61,636.878 3327.45,632.378 3334,627.5C 3336.28,629.874 3338.44,632.374 3340.5,635C 3345.3,634.792 3347.13,636.958 3346,641.5C 3342.71,644.787 3338.87,647.287 3334.5,649C 3341.38,654.912 3340.88,660.412 3333,665.5C 3331.4,669.987 3329.23,674.154 3326.5,678C 3321.77,678.683 3317.1,679.683 3312.5,681C 3300.52,689.153 3287.52,695.486 3273.5,700C 3250.14,704.475 3226.8,704.475 3203.5,700C 3198.19,696.894 3192.52,694.561 3186.5,693C 3154.37,674.581 3139.04,646.748 3140.5,609.5C 3140.32,594.883 3143.16,580.883 3149,567.5C 3160.8,539.058 3178.97,515.558 3203.5,497C 3212.89,489.943 3222.56,483.276 3232.5,477C 3242.04,473.058 3251.37,468.891 3260.5,464.5 Z M 3235.5,551.5 C 3237.38,545.113 3241.55,540.78 3248,538.5C 3248.37,536.102 3248.37,533.769 3248,531.5C 3249.8,530.233 3251.63,530.233 3253.5,531.5C 3256.47,527.06 3259.81,522.893 3263.5,519C 3271.33,514.584 3279,509.918 3286.5,505C 3290.24,504.39 3293.9,504.723 3297.5,506C 3286.26,522.914 3271.59,535.914 3253.5,545C 3247.66,547.67 3241.66,549.836 3235.5,551.5 Z"/></g>
<g><path style="opacity:0.989" fill="#1d56fb" d="M 2828.5,467.5 C 2836.49,468.058 2844.49,468.558 2852.5,469C 2874.39,484.205 2881.89,504.371 2875,529.5C 2872,534.833 2869,540.167 2866,545.5C 2857.75,568.256 2851.09,591.589 2846,615.5C 2844.72,627.172 2843.39,638.839 2842,650.5C 2840.12,658.754 2836.29,665.921 2830.5,672C 2821.52,673.457 2812.86,675.79 2804.5,679C 2801.03,683.956 2798.03,689.123 2795.5,694.5C 2793.15,692.796 2792.15,690.463 2792.5,687.5C 2791.45,687.351 2790.45,687.517 2789.5,688C 2787.58,691.083 2784.92,693.25 2781.5,694.5C 2776.14,689.976 2770.64,685.643 2765,681.5C 2762.69,670.945 2762.02,660.279 2763,649.5C 2765.7,624.614 2769.7,599.948 2775,575.5C 2781.73,553.633 2789.07,531.966 2797,510.5C 2800.45,500.36 2803.12,490.026 2805,479.5C 2806.56,477.641 2808.39,476.141 2810.5,475C 2816.71,472.718 2822.71,470.218 2828.5,467.5 Z"/></g>
</svg>
