<?xml version="1.0" encoding="UTF-8"?>
<!DOCTYPE svg PUBLIC "-//W3C//DTD SVG 1.1//EN" "http://www.w3.org/Graphics/SVG/1.1/DTD/svg11.dtd">
<svg xmlns="http://www.w3.org/2000/svg" version="1.1" width="3070px" height="771px" style="shape-rendering:geometricPrecision; text-rendering:geometricPrecision; image-rendering:optimizeQuality; fill-rule:evenodd; clip-rule:evenodd" xmlns:xlink="http://www.w3.org/1999/xlink">
<g><path style="opacity:0.987" fill="#00105d" d="M 2684.5,201.5 C 2695.83,201.5 2707.17,201.5 2718.5,201.5C 2718.5,254.5 2718.5,307.5 2718.5,360.5C 2724.43,361.111 2730.1,360.278 2735.5,358C 2757.5,334.667 2779.5,311.333 2801.5,288C 2814.1,286.393 2826.76,286.059 2839.5,287C 2813.6,314.679 2787.6,342.179 2761.5,369.5C 2764.15,371.65 2766.65,373.983 2769,376.5C 2793.4,408.908 2818.57,440.742 2844.5,472C 2831.74,472.96 2819.07,472.627 2806.5,471C 2804,468.5 2801.5,466 2799,463.5C 2778.55,437.377 2757.71,411.544 2736.5,386C 2730.62,384.59 2724.62,384.09 2718.5,384.5C 2718.5,413.833 2718.5,443.167 2718.5,472.5C 2707.17,472.5 2695.83,472.5 2684.5,472.5C 2684.5,382.167 2684.5,291.833 2684.5,201.5 Z"/></g>
<g><path style="opacity:0.974" fill="#00115d" d="M 1315.5,205.5 C 1321.5,205.5 1327.5,205.5 1333.5,205.5C 1333.33,243.501 1333.5,281.501 1334,319.5C 1346.07,305.222 1360.9,295.055 1378.5,289C 1430.61,279.779 1457.78,301.612 1460,354.5C 1460.5,393.832 1460.67,433.165 1460.5,472.5C 1454.17,472.5 1447.83,472.5 1441.5,472.5C 1441.67,430.165 1441.5,387.832 1441,345.5C 1438.48,316.647 1422.82,301.98 1394,301.5C 1377.52,301.88 1363.02,307.38 1350.5,318C 1344.63,323.531 1339.13,329.365 1334,335.5C 1333.5,381.165 1333.33,426.832 1333.5,472.5C 1327.5,472.5 1321.5,472.5 1315.5,472.5C 1315.5,383.5 1315.5,294.5 1315.5,205.5 Z"/></g>
<g><path style="opacity:0.989" fill="#00105d" d="M 1934.5,209.5 C 1946.17,209.333 1957.84,209.5 1969.5,210C 1973.06,211.892 1975.56,214.725 1977,218.5C 1997.01,285.025 2016.51,351.692 2035.5,418.5C 2057.16,351.682 2079.33,285.016 2102,218.5C 2103.44,214.725 2105.94,211.892 2109.5,210C 2116.5,209.333 2123.5,209.333 2130.5,210C 2134.06,211.892 2136.56,214.725 2138,218.5C 2160.47,284.75 2182.64,351.083 2204.5,417.5C 2223.62,349.97 2243.45,282.636 2264,215.5C 2265.66,213.083 2267.83,211.25 2270.5,210C 2281.52,209.168 2292.52,209.334 2303.5,210.5C 2276.44,297.525 2249.27,384.525 2222,471.5C 2216.41,472.156 2210.75,472.489 2205,472.5C 2199.09,472.475 2193.42,471.808 2188,470.5C 2165,400.833 2142,331.167 2119,261.5C 2095.73,331.821 2072.56,402.154 2049.5,472.5C 2038.17,472.5 2026.83,472.5 2015.5,472.5C 1988.65,384.787 1961.65,297.12 1934.5,209.5 Z"/></g>
<g><path style="opacity:0.989" fill="#00105d" d="M 258.5,212.5 C 264.176,212.334 269.843,212.501 275.5,213C 276.931,213.465 278.097,214.299 279,215.5C 313.747,275.997 348.747,336.33 384,396.5C 385.333,399.833 386.667,403.167 388,406.5C 423.399,342.704 459.066,279.037 495,215.5C 495.833,214.667 496.667,213.833 497.5,213C 503.491,212.501 509.491,212.334 515.5,212.5C 515.5,299.167 515.5,385.833 515.5,472.5C 509.833,472.5 504.167,472.5 498.5,472.5C 498.667,396.499 498.5,320.499 498,244.5C 465,303.167 432,361.833 399,420.5C 394.965,427.607 389.131,429.44 381.5,426C 345.955,365.746 310.788,305.246 276,244.5C 275.5,320.499 275.333,396.499 275.5,472.5C 269.833,472.5 264.167,472.5 258.5,472.5C 258.5,385.833 258.5,299.167 258.5,212.5 Z"/></g>
<g><path style="opacity:0.971" fill="#00105d" d="M 1202.5,225.5 C 1206.17,225.5 1209.83,225.5 1213.5,225.5C 1213.5,248.833 1213.5,272.167 1213.5,295.5C 1232.83,295.5 1252.17,295.5 1271.5,295.5C 1271.8,300.099 1271.47,304.599 1270.5,309C 1251.5,309.5 1232.5,309.667 1213.5,309.5C 1213.33,350.835 1213.5,392.168 1214,433.5C 1215.75,455.911 1227.59,464.411 1249.5,459C 1255.7,455.736 1261.7,452.236 1267.5,448.5C 1271.18,450.866 1273.85,454.199 1275.5,458.5C 1260.13,473.673 1241.8,478.839 1220.5,474C 1207.83,469.993 1199.99,461.493 1197,448.5C 1195.54,402.196 1195.04,355.863 1195.5,309.5C 1186.49,309.666 1177.49,309.5 1168.5,309C 1165.14,307.865 1163.81,305.532 1164.5,302C 1164.63,300.019 1165.3,298.353 1166.5,297C 1176.42,296.518 1186.25,295.684 1196,294.5C 1197.33,274.5 1198.67,254.5 1200,234.5C 1200.06,231.189 1200.89,228.189 1202.5,225.5 Z"/></g>
<g><path style="opacity:0.992" fill="#00105d" d="M 2618.5,282.5 C 2629.34,282.121 2639.51,284.454 2649,289.5C 2648.73,299.307 2646.89,308.807 2643.5,318C 2642.13,318.875 2640.63,319.375 2639,319.5C 2605.93,309.536 2582.93,320.536 2570,352.5C 2569.5,392.499 2569.33,432.499 2569.5,472.5C 2558.17,472.5 2546.83,472.5 2535.5,472.5C 2535.5,410.5 2535.5,348.5 2535.5,286.5C 2543.84,286.334 2552.17,286.5 2560.5,287C 2562.81,288.109 2564.31,289.943 2565,292.5C 2566.05,302.494 2567.05,312.494 2568,322.5C 2577.94,300.153 2594.77,286.819 2618.5,282.5 Z"/></g>
<g><path style="opacity:0.986" fill="#00105d" d="M 2394.5,283.5 C 2460.44,281.437 2494.44,313.437 2496.5,379.5C 2496.95,405.748 2489.11,429.081 2473,449.5C 2449.44,471.626 2421.6,479.793 2389.5,474C 2349.73,465.894 2326.56,441.728 2320,401.5C 2315.19,373.293 2319.52,346.626 2333,321.5C 2347.71,299.557 2368.21,286.89 2394.5,283.5 Z M 2404.5,309.5 C 2436.37,309.863 2454.87,325.863 2460,357.5C 2462.74,376.391 2461.74,395.058 2457,413.5C 2446.25,441.967 2425.75,453.467 2395.5,448C 2373.96,442.791 2360.79,429.291 2356,407.5C 2352.69,388.837 2352.69,370.171 2356,351.5C 2362.24,325.744 2378.41,311.744 2404.5,309.5 Z"/></g>
<g><path style="opacity:0.974" fill="#00105d" d="M 642.5,286.5 C 699.481,284.976 730.647,312.643 736,369.5C 738.896,397.037 732.896,422.37 718,445.5C 698.787,468.025 674.287,477.859 644.5,475C 605.325,470.497 581.158,448.997 572,410.5C 567.336,385.033 569.002,360.033 577,335.5C 589.615,306.704 611.448,290.371 642.5,286.5 Z M 642.5,301.5 C 685.403,298.899 709.903,318.899 716,361.5C 719.883,386.234 716.55,409.9 706,432.5C 691.013,454.403 670.18,463.57 643.5,460C 615.93,456.1 598.764,440.6 592,413.5C 585.567,386.768 587.233,360.435 597,334.5C 606.446,315.546 621.613,304.546 642.5,301.5 Z"/></g>
<g><path style="opacity:0.984" fill="#02105a" d="M 848.5,286.5 C 861.724,285.28 874.391,287.28 886.5,292.5C 885.992,297.543 885.158,302.543 884,307.5C 882.915,308.293 881.748,308.96 880.5,309.5C 847.217,297.087 822.384,306.42 806,337.5C 803.723,342.387 801.723,347.387 800,352.5C 799.667,392.5 799.333,432.5 799,472.5C 793,473.833 787,473.833 781,472.5C 780.5,411.501 780.333,350.501 780.5,289.5C 784.846,289.334 789.179,289.501 793.5,290C 794.416,290.374 795.25,290.874 796,291.5C 797.332,304.441 798.332,317.441 799,330.5C 805.503,313.998 816.336,301.165 831.5,292C 837.127,289.623 842.793,287.79 848.5,286.5 Z"/></g>
<g><path style="opacity:0.974" fill="#00105d" d="M 985.5,286.5 C 1026.44,283.534 1052.94,301.534 1065,340.5C 1067.51,351.134 1068.18,361.801 1067,372.5C 1066.5,373 1066,373.5 1065.5,374C 1020.83,374.5 976.168,374.667 931.5,374.5C 929.41,401.347 937.076,424.847 954.5,445C 970.007,457.296 987.674,462.296 1007.5,460C 1016.09,459.102 1024.43,457.102 1032.5,454C 1040.59,449.872 1048.43,445.372 1056,440.5C 1059.59,441.76 1062.26,444.093 1064,447.5C 1064.67,448.5 1064.67,449.5 1064,450.5C 1053.73,460.556 1041.56,467.389 1027.5,471C 997.639,479.879 969.973,475.545 944.5,458C 929.182,444.538 919.682,427.705 916,407.5C 910.795,382.706 912.461,358.373 921,334.5C 933.555,306.473 955.055,290.473 985.5,286.5 Z M 987.5,300.5 C 1019.43,298.03 1039.93,312.03 1049,342.5C 1050.33,349.11 1051.16,355.776 1051.5,362.5C 1011.83,362.5 972.167,362.5 932.5,362.5C 935.472,327.877 953.806,307.21 987.5,300.5 Z"/></g>
<g><path style="opacity:0.973" fill="#00105d" d="M 1567.5,286.5 C 1584.29,284.518 1599.96,287.685 1614.5,296C 1629.96,309.1 1637.8,325.934 1638,346.5C 1638.67,388.5 1638.67,430.5 1638,472.5C 1633.34,473.977 1629.01,473.311 1625,470.5C 1622.95,462.317 1621.61,453.984 1621,445.5C 1612.74,453.098 1603.9,459.932 1594.5,466C 1574.27,476.162 1553.27,478.162 1531.5,472C 1510.83,462.507 1501.66,446.34 1504,423.5C 1506.15,411.694 1511.98,402.194 1521.5,395C 1533.14,387.338 1545.81,382.005 1559.5,379C 1579.6,374.6 1599.93,372.434 1620.5,372.5C 1621.18,358 1620.01,343.667 1617,329.5C 1612.07,313.9 1601.57,304.733 1585.5,302C 1570.15,300.169 1555.82,303.169 1542.5,311C 1536.65,315.091 1530.99,319.424 1525.5,324C 1523.17,324.667 1520.83,324.667 1518.5,324C 1516.26,321.512 1514.26,318.846 1512.5,316C 1527.49,299.838 1545.83,290.004 1567.5,286.5 Z M 1619.5,384.5 C 1620.66,399.995 1620.83,415.661 1620,431.5C 1604.15,451.008 1583.65,461.341 1558.5,462.5C 1532.85,461.356 1520.69,448.023 1522,422.5C 1523.66,415.017 1527.49,408.85 1533.5,404C 1544.55,396.98 1556.55,392.314 1569.5,390C 1586.21,387.226 1602.88,385.392 1619.5,384.5 Z"/></g>
<g><path style="opacity:0.985" fill="#00105d" d="M 1766.5,286.5 C 1808.26,284.432 1831.42,304.099 1836,345.5C 1836.5,387.832 1836.67,430.165 1836.5,472.5C 1830.5,472.5 1824.5,472.5 1818.5,472.5C 1818.67,433.499 1818.5,394.499 1818,355.5C 1816.7,312.204 1794.87,295.037 1752.5,304C 1735.21,309.962 1721.37,320.462 1711,335.5C 1710.5,381.165 1710.33,426.832 1710.5,472.5C 1704.17,472.5 1697.83,472.5 1691.5,472.5C 1691.5,411.5 1691.5,350.5 1691.5,289.5C 1695.85,289.334 1700.18,289.501 1704.5,290C 1705.42,290.374 1706.25,290.874 1707,291.5C 1708.23,301.115 1709.23,310.782 1710,320.5C 1724.71,302.072 1743.54,290.739 1766.5,286.5 Z"/></g>
</svg>
